<svg width="431" height="431" viewBox="0 0 431 431" fill="none" xmlns="http://www.w3.org/2000/svg">
<path d="M276.224 135.903C276.224 135.402 275.987 134.934 275.599 134.675L249.653 117.327L275.554 100.38C275.825 100.205 276.024 99.9247 276.122 99.603C276.167 99.4568 276.19 99.3021 276.19 99.1434V99.0139C276.19 98.5125 275.953 98.0445 275.565 97.7854L226.862 65.137C225.981 64.5312 224.946 64.0256 223.79 63.6328C223.786 63.6328 223.782 63.6328 223.778 63.6328C223.711 63.6119 223.639 63.5911 223.568 63.5702C223.496 63.5493 223.428 63.5285 223.357 63.5076C223.304 63.4909 223.248 63.4741 223.195 63.4616C222.178 63.1691 221.109 62.9769 220.021 62.9058C219.934 62.9017 219.851 62.8975 219.765 62.8891C219.72 62.8891 219.678 62.885 219.633 62.8808C219.61 62.8808 219.584 62.8808 219.561 62.8808C219.505 62.8808 219.445 62.8725 219.388 62.8725C219.366 62.8725 219.343 62.8725 219.32 62.8725C216.749 62.8182 214.384 63.4281 212.641 64.6022L163.11 97.7938C162.722 98.0529 162.485 98.5209 162.485 99.0223V135.987C162.485 136.488 162.722 136.956 163.11 137.215L189.082 154.601L163.121 171.606C162.726 171.865 162.485 172.333 162.485 172.843V172.972C162.485 173.068 162.492 173.16 162.507 173.248C162.579 173.641 162.793 173.988 163.106 174.196L200.005 198.931L211.816 206.849C211.816 206.849 211.843 206.866 211.854 206.874C212.392 207.233 212.976 207.555 213.59 207.831C213.646 207.856 213.703 207.881 213.759 207.906C213.804 207.927 213.853 207.948 213.899 207.969C214.222 208.107 214.55 208.236 214.881 208.349C214.885 208.349 214.889 208.349 214.893 208.349C215.28 208.479 215.679 208.587 216.079 208.683C216.101 208.688 216.124 208.692 216.146 208.7C216.278 208.729 216.41 208.759 216.542 208.788C216.594 208.8 216.643 208.809 216.696 208.817C216.775 208.834 216.858 208.846 216.937 208.863C217.031 208.88 217.129 208.896 217.223 208.913C217.291 208.926 217.355 208.934 217.423 208.942C217.954 209.022 218.496 209.072 219.042 209.093C219.241 209.101 219.441 209.105 219.64 209.105C222.099 209.105 224.355 208.495 226.034 207.363L275.565 174.192C275.953 173.933 276.19 173.465 276.19 172.964V136.434C276.213 136.329 276.224 136.221 276.224 136.112V135.907V135.903ZM220.642 65.8348C221.267 65.9183 221.892 66.0437 222.502 66.215C223.59 66.5284 224.626 66.9838 225.518 67.5855L272.474 99.0598L250.481 113.45L247.138 115.635L220.642 97.9192V65.8348ZM165.064 99.8203L213.97 67.0465C215.07 66.307 216.512 65.8807 218.059 65.7596V98.1825L191.074 116.245L186.721 119.144L165.071 133.634V99.8161L165.064 99.8203ZM218.025 206.13C217.664 206.084 217.299 206.022 216.941 205.947C216.884 205.934 216.828 205.921 216.771 205.909C216.734 205.901 216.7 205.892 216.666 205.884C216.041 205.734 215.431 205.537 214.851 205.295C214.844 205.295 214.836 205.291 214.832 205.286C214.749 205.249 214.663 205.211 214.58 205.174C214.508 205.14 214.433 205.107 214.362 205.073C214.347 205.065 214.335 205.061 214.32 205.052C213.91 204.852 213.518 204.626 213.153 204.384L166.197 172.91L191.533 156.314L218.029 174.046V206.126L218.025 206.13ZM219.125 171.435L217.227 170.164V133.672C217.227 133.171 216.99 132.703 216.602 132.444L197.366 119.558L194.244 117.477L219.546 100.543L222.739 102.682L224.057 103.564V139.981C224.057 140.482 224.294 140.951 224.682 141.21L241.336 152.349L244.495 154.459L219.117 171.443L219.125 171.435ZM273.603 172.149L224.697 204.902C223.594 205.646 222.156 206.072 220.608 206.197V173.787L247.597 155.725L251.953 152.804L273.603 138.314V172.149Z" fill="#FFEC1C"></path>
<path d="M95.6942 306.237V260.507H107.227V306.237H95.6942ZM76.9408 288.988V277.656H125.88V288.988H76.9408ZM135.016 312.354V242.154H163.798C168.679 242.154 172.791 242.923 176.134 244.461C179.476 245.999 181.984 248.138 183.655 250.879C185.393 253.554 186.262 256.662 186.262 260.206C186.262 263.749 185.494 266.724 183.956 269.131C182.418 271.538 180.379 273.41 177.838 274.747C175.365 276.018 172.657 276.753 169.715 276.954L171.22 275.85C174.429 275.984 177.27 276.853 179.744 278.458C182.284 279.996 184.257 282.068 185.661 284.676C187.132 287.283 187.867 290.124 187.867 293.2C187.867 296.944 186.964 300.253 185.159 303.128C183.421 306.003 180.814 308.276 177.337 309.948C173.927 311.552 169.749 312.354 164.801 312.354H135.016ZM148.555 301.323H162.595C166.272 301.323 169.114 300.487 171.119 298.816C173.125 297.144 174.128 294.738 174.128 291.595C174.128 288.453 173.092 286.013 171.019 284.274C168.946 282.469 166.072 281.567 162.394 281.567H148.555V301.323ZM148.555 271.438H161.592C165.136 271.438 167.843 270.636 169.715 269.031C171.587 267.426 172.523 265.153 172.523 262.212C172.523 259.337 171.587 257.097 169.715 255.492C167.843 253.821 165.102 252.985 161.492 252.985H148.555V271.438ZM195.345 312.354V242.154H241.576V253.086H208.883V271.438H238.568V281.968H208.883V301.423H241.576V312.354H195.345ZM273.681 313.558C268.6 313.558 264.054 312.689 260.042 310.95C256.098 309.212 252.989 306.672 250.716 303.329C248.442 299.986 247.239 295.941 247.105 291.194H261.446C261.513 293.267 262.014 295.139 262.95 296.81C263.953 298.482 265.357 299.819 267.162 300.822C268.968 301.758 271.14 302.226 273.681 302.226C275.754 302.226 277.592 301.925 279.197 301.323C280.801 300.654 282.038 299.718 282.907 298.515C283.843 297.245 284.311 295.674 284.311 293.802C284.311 291.796 283.81 290.124 282.807 288.787C281.871 287.45 280.534 286.314 278.796 285.378C277.057 284.375 275.085 283.506 272.879 282.77C270.739 281.968 268.5 281.166 266.16 280.363C260.477 278.424 256.131 275.917 253.122 272.842C250.181 269.766 248.71 265.722 248.71 260.707C248.71 256.629 249.713 253.119 251.718 250.177C253.724 247.236 256.532 244.962 260.142 243.358C263.753 241.753 267.864 240.951 272.478 240.951C277.224 240.951 281.403 241.787 285.013 243.458C288.624 245.063 291.465 247.403 293.538 250.478C295.61 253.554 296.713 257.164 296.847 261.309H282.306C282.239 259.504 281.771 257.933 280.902 256.596C280.099 255.258 278.929 254.189 277.392 253.386C275.921 252.584 274.182 252.183 272.177 252.183C270.438 252.116 268.834 252.384 267.363 252.985C265.959 253.52 264.856 254.356 264.054 255.492C263.251 256.562 262.85 258 262.85 259.805C262.85 261.476 263.218 262.88 263.953 264.017C264.756 265.153 265.859 266.156 267.263 267.025C268.734 267.828 270.438 268.63 272.377 269.432C274.383 270.168 276.623 270.97 279.096 271.839C282.64 273.042 285.882 274.48 288.824 276.151C291.766 277.756 294.106 279.862 295.844 282.469C297.649 285.077 298.552 288.453 298.552 292.598C298.552 296.342 297.582 299.819 295.644 303.028C293.772 306.17 290.997 308.711 287.32 310.65C283.643 312.588 279.096 313.558 273.681 313.558ZM330.19 313.558C325.109 313.558 320.562 312.689 316.551 310.95C312.606 309.212 309.497 306.672 307.224 303.329C304.951 299.986 303.748 295.941 303.614 291.194H317.955C318.022 293.267 318.523 295.139 319.459 296.81C320.462 298.482 321.866 299.819 323.671 300.822C325.476 301.758 327.649 302.226 330.19 302.226C332.262 302.226 334.101 301.925 335.705 301.323C337.31 300.654 338.547 299.718 339.416 298.515C340.352 297.245 340.82 295.674 340.82 293.802C340.82 291.796 340.319 290.124 339.316 288.787C338.38 287.45 337.043 286.314 335.304 285.378C333.566 284.375 331.594 283.506 329.387 282.77C327.248 281.968 325.008 281.166 322.668 280.363C316.985 278.424 312.64 275.917 309.631 272.842C306.689 269.766 305.219 265.722 305.219 260.707C305.219 256.629 306.221 253.119 308.227 250.177C310.233 247.236 313.041 244.962 316.651 243.358C320.261 241.753 324.373 240.951 328.986 240.951C333.733 240.951 337.912 241.787 341.522 243.458C345.132 245.063 347.974 247.403 350.046 250.478C352.119 253.554 353.222 257.164 353.356 261.309H338.814C338.747 259.504 338.279 257.933 337.41 256.596C336.608 255.258 335.438 254.189 333.9 253.386C332.429 252.584 330.691 252.183 328.685 252.183C326.947 252.116 325.343 252.384 323.872 252.985C322.468 253.52 321.365 254.356 320.562 255.492C319.76 256.562 319.359 258 319.359 259.805C319.359 261.476 319.727 262.88 320.462 264.017C321.264 265.153 322.367 266.156 323.771 267.025C325.242 267.828 326.947 268.63 328.886 269.432C330.892 270.168 333.131 270.97 335.605 271.839C339.149 273.042 342.391 274.48 345.333 276.151C348.275 277.756 350.615 279.862 352.353 282.469C354.158 285.077 355.061 288.453 355.061 292.598C355.061 296.342 354.091 299.819 352.152 303.028C350.28 306.17 347.506 308.711 343.829 310.65C340.151 312.588 335.605 313.558 330.19 313.558Z" fill="url(#paint0_linear_4482_27)"></path>
<defs>
<linearGradient id="paint0_linear_4482_27" x1="215.428" y1="225.354" x2="215.428" y2="331.354" gradientUnits="userSpaceOnUse">
<stop stop-color="#FFE99A"></stop>
<stop offset="0.546875" stop-color="#FFEC1C"></stop>
<stop offset="1" stop-color="#7E7617"></stop>
</linearGradient>
</defs>
</svg>