<svg width="431" height="203" viewBox="0 0 431 203" fill="none" xmlns="http://www.w3.org/2000/svg">
<path d="M167.642 129.322V85.7905H178.62V129.322H167.642ZM149.79 112.902V102.115H196.377V112.902H149.79ZM205.074 135.146V68.3205H232.472C237.118 68.3205 241.032 69.0524 244.214 70.5162C247.396 71.9799 249.783 74.0165 251.374 76.6259C253.029 79.1716 253.856 82.131 253.856 85.5041C253.856 88.8771 253.124 91.7092 251.66 94.0004C250.196 96.2915 248.255 98.0735 245.837 99.3464C243.482 100.556 240.905 101.256 238.104 101.447L239.536 100.396C242.591 100.524 245.296 101.351 247.651 102.879C250.069 104.342 251.947 106.315 253.283 108.797C254.683 111.279 255.383 113.984 255.383 116.912C255.383 120.476 254.524 123.626 252.806 126.363C251.151 129.099 248.669 131.263 245.36 132.854C242.114 134.382 238.136 135.146 233.427 135.146H205.074ZM217.961 124.644H231.326C234.827 124.644 237.532 123.849 239.441 122.258C241.35 120.667 242.305 118.376 242.305 115.384C242.305 112.393 241.318 110.07 239.345 108.415C237.372 106.697 234.636 105.838 231.135 105.838H217.961V124.644ZM217.961 96.1961H230.372C233.745 96.1961 236.322 95.4324 238.104 93.9049C239.886 92.3775 240.777 90.2136 240.777 87.4133C240.777 84.6767 239.886 82.5447 238.104 81.0172C236.322 79.4262 233.713 78.6306 230.276 78.6306H217.961V96.1961ZM262.501 135.146V68.3205H306.51V78.7261H275.389V96.1961H303.647V106.22H275.389V124.74H306.51V135.146H262.501ZM337.072 136.291C332.235 136.291 327.907 135.464 324.089 133.809C320.334 132.154 317.374 129.736 315.21 126.554C313.047 123.372 311.901 119.521 311.774 115.003H325.425C325.489 116.975 325.966 118.757 326.857 120.349C327.812 121.94 329.148 123.212 330.867 124.167C332.585 125.058 334.653 125.504 337.072 125.504C339.045 125.504 340.795 125.217 342.322 124.644C343.85 124.008 345.027 123.117 345.854 121.971C346.745 120.762 347.191 119.267 347.191 117.485C347.191 115.575 346.714 113.984 345.759 112.711C344.868 111.439 343.595 110.357 341.94 109.466C340.286 108.511 338.408 107.684 336.308 106.984C334.271 106.22 332.139 105.456 329.912 104.692C324.502 102.847 320.365 100.46 317.502 97.5326C314.701 94.605 313.301 90.7546 313.301 85.9814C313.301 82.0992 314.256 78.7579 316.165 75.9576C318.074 73.1573 320.747 70.9935 324.184 69.4661C327.621 67.9386 331.535 67.1749 335.926 67.1749C340.445 67.1749 344.423 67.9704 347.859 69.5615C351.296 71.0889 354.001 73.3164 355.974 76.244C357.947 79.1716 358.997 82.6083 359.124 86.5542H345.282C345.218 84.8358 344.773 83.3402 343.945 82.0673C343.181 80.7945 342.068 79.7762 340.604 79.0125C339.204 78.2488 337.549 77.8669 335.64 77.8669C333.985 77.8033 332.458 78.0578 331.058 78.6306C329.721 79.1398 328.671 79.9353 327.907 81.0172C327.143 82.0355 326.762 83.4038 326.762 85.1222C326.762 86.7133 327.112 88.0498 327.812 89.1317C328.575 90.2136 329.626 91.1683 330.962 91.9956C332.362 92.7593 333.985 93.5231 335.831 94.2868C337.74 94.9868 339.872 95.7506 342.227 96.5779C345.6 97.7235 348.687 99.0918 351.487 100.683C354.287 102.21 356.515 104.215 358.169 106.697C359.888 109.179 360.747 112.393 360.747 116.339C360.747 119.903 359.824 123.212 357.978 126.267C356.196 129.259 353.555 131.677 350.055 133.523C346.555 135.368 342.227 136.291 337.072 136.291ZM390.864 136.291C386.027 136.291 381.699 135.464 377.881 133.809C374.126 132.154 371.166 129.736 369.002 126.554C366.838 123.372 365.693 119.521 365.566 115.003H379.217C379.281 116.975 379.758 118.757 380.649 120.349C381.604 121.94 382.94 123.212 384.658 124.167C386.377 125.058 388.445 125.504 390.864 125.504C392.837 125.504 394.587 125.217 396.114 124.644C397.642 124.008 398.819 123.117 399.646 121.971C400.537 120.762 400.983 119.267 400.983 117.485C400.983 115.575 400.506 113.984 399.551 112.711C398.66 111.439 397.387 110.357 395.732 109.466C394.078 108.511 392.2 107.684 390.1 106.984C388.063 106.22 385.931 105.456 383.704 104.692C378.294 102.847 374.157 100.46 371.293 97.5326C368.493 94.605 367.093 90.7546 367.093 85.9814C367.093 82.0992 368.048 78.7579 369.957 75.9576C371.866 73.1573 374.539 70.9935 377.976 69.4661C381.413 67.9386 385.327 67.1749 389.718 67.1749C394.237 67.1749 398.214 67.9704 401.651 69.5615C405.088 71.0889 407.793 73.3164 409.766 76.244C411.739 79.1716 412.789 82.6083 412.916 86.5542H399.074C399.01 84.8358 398.564 83.3402 397.737 82.0673C396.973 80.7945 395.86 79.7762 394.396 79.0125C392.996 78.2488 391.341 77.8669 389.432 77.8669C387.777 77.8033 386.25 78.0578 384.849 78.6306C383.513 79.1398 382.463 79.9353 381.699 81.0172C380.935 82.0355 380.554 83.4038 380.554 85.1222C380.554 86.7133 380.904 88.0498 381.604 89.1317C382.367 90.2136 383.417 91.1683 384.754 91.9956C386.154 92.7593 387.777 93.5231 389.623 94.2868C391.532 94.9868 393.664 95.7506 396.019 96.5779C399.392 97.7235 402.478 99.0918 405.279 100.683C408.079 102.21 410.307 104.215 411.961 106.697C413.68 109.179 414.539 112.393 414.539 116.339C414.539 119.903 413.616 123.212 411.77 126.267C409.988 129.259 407.347 131.677 403.847 133.523C400.346 135.368 396.019 136.291 390.864 136.291Z" fill="url(#paint0_linear_4206_353)"></path>
<path d="M113.447 101.063C113.447 100.641 113.24 100.247 112.902 100.029L90.2636 85.4257L112.863 71.1603C113.099 71.0126 113.273 70.7769 113.359 70.5061C113.398 70.383 113.418 70.2528 113.418 70.1191V70.0102C113.418 69.5881 113.211 69.1941 112.872 68.9761L70.3783 41.4933C69.6096 40.9833 68.7061 40.5577 67.6976 40.2271C67.6943 40.2271 67.691 40.2271 67.6877 40.2271C67.6286 40.2095 67.5662 40.192 67.5037 40.1744C67.4413 40.1568 67.3822 40.1392 67.3198 40.1216C67.2738 40.1076 67.2245 40.0935 67.1785 40.0829C66.2915 39.8367 65.3585 39.6749 64.4091 39.6151C64.3335 39.6116 64.2613 39.6081 64.1857 39.601C64.1463 39.601 64.1101 39.5976 64.0707 39.5941C64.051 39.5941 64.028 39.5941 64.0083 39.5941C63.959 39.5941 63.9065 39.587 63.8572 39.587C63.8375 39.587 63.8177 39.587 63.798 39.587C61.5542 39.5413 59.4911 40.0548 57.9701 41.0431L14.7532 68.9831C14.4149 69.2012 14.2079 69.5952 14.2079 70.0172V101.133C14.2079 101.555 14.4149 101.949 14.7532 102.167L37.4146 116.802L14.7631 131.117C14.4181 131.335 14.2079 131.729 14.2079 132.158V132.267C14.2079 132.348 14.2144 132.425 14.2276 132.499C14.29 132.83 14.4773 133.121 14.75 133.297L46.9449 154.119L57.2506 160.784C57.2506 160.784 57.2736 160.798 57.2835 160.805C57.7533 161.107 58.2625 161.378 58.798 161.61C58.8472 161.631 58.8965 161.652 58.9458 161.673C58.9852 161.691 59.0279 161.709 59.0674 161.726C59.3499 161.842 59.6357 161.951 59.9248 162.046C59.9281 162.046 59.9313 162.046 59.9346 162.046C60.273 162.155 60.6212 162.247 60.9695 162.328C60.9892 162.331 61.0089 162.335 61.0286 162.342C61.1436 162.366 61.2586 162.391 61.3735 162.416C61.4195 162.426 61.4622 162.433 61.5082 162.44C61.5772 162.454 61.6495 162.465 61.7185 162.479C61.8006 162.493 61.886 162.507 61.9682 162.521C62.0273 162.532 62.0832 162.539 62.1423 162.546C62.6055 162.613 63.0786 162.655 63.5549 162.672C63.729 162.679 63.9032 162.683 64.0773 162.683C66.2225 162.683 68.1904 162.169 69.6556 161.216L112.872 133.294C113.211 133.076 113.418 132.682 113.418 132.26V101.509C113.437 101.422 113.447 101.33 113.447 101.239V101.066V101.063ZM64.9511 42.0806C65.4965 42.151 66.0418 42.2565 66.574 42.4007C67.5235 42.6645 68.4269 43.0479 69.2055 43.5544L110.175 70.0488L90.9864 82.1618L88.0691 84.0013L64.9511 69.0886V42.0806ZM16.4582 70.689L59.1298 43.1006C60.089 42.4781 61.3473 42.1193 62.6975 42.0173V69.3103L39.1524 84.5148L35.3547 86.9557L16.4648 99.153V70.6854L16.4582 70.689ZM62.6679 160.179C62.3526 160.14 62.0339 160.087 61.7218 160.024C61.6725 160.013 61.6232 160.003 61.5739 159.992C61.5411 159.985 61.5115 159.978 61.482 159.971C60.9366 159.845 60.4044 159.679 59.8985 159.475C59.8919 159.475 59.8854 159.472 59.8821 159.468C59.8098 159.437 59.7342 159.405 59.662 159.373C59.5995 159.345 59.5339 159.317 59.4714 159.289C59.4583 159.282 59.4484 159.278 59.4353 159.271C59.0772 159.102 58.7355 158.913 58.4169 158.709L17.4471 132.214L39.5532 118.244L62.6712 133.171V160.175L62.6679 160.179ZM63.6272 130.972L61.9715 129.903V99.1847C61.9715 98.7627 61.7645 98.3688 61.4261 98.1507L44.642 87.3039L41.9186 85.5523L63.9952 71.2974L66.781 73.0982L67.9308 73.8403V104.496C67.9308 104.918 68.1378 105.312 68.4761 105.53L83.0066 114.906L85.7629 116.682L63.6206 130.979L63.6272 130.972ZM111.161 131.574L68.4893 159.145C67.5267 159.771 66.2718 160.13 64.9216 160.235V132.953L88.4699 117.748L92.2709 115.29L111.161 103.092V131.574Z" fill="url(#paint1_linear_4206_353)"></path>
<defs>
<linearGradient id="paint0_linear_4206_353" x1="281.494" y1="52.1455" x2="281.494" y2="153.146" gradientUnits="userSpaceOnUse">
<stop stop-color="#FFF000"></stop>
<stop offset="0.546875" stop-color="#FFF000"></stop>
<stop offset="1" stop-color="#81770B"></stop>
</linearGradient>
<linearGradient id="paint1_linear_4206_353" x1="63.8276" y1="39.5842" x2="63.8276" y2="162.683" gradientUnits="userSpaceOnUse">
<stop stop-color="#FFE99A"></stop>
<stop offset="0.546875" stop-color="#FFEC1C"></stop>
<stop offset="1" stop-color="#AFA211"></stop>
</linearGradient>
</defs>
</svg>